# xmcd
#
# Track frame offsets:
#	150
#	41942
#	83380
#	128365
#	160817
#	193975
#	235067
#	275592
#
# Disc length: 4007 seconds
#
# Revision: 2
# Processed by: cddbd v1.5.2PL0 Copyright (c) Steve Scherf et al.
# Submitted via: EasyCDDAExtractor 12.0.1.1
#
DISCID=620fa508
DTITLE=Harper Lee - To Kill A Mockingbird [CD03 of 11)
DYEAR=2006
DGENRE=Audiobook
TTITLE0=Eight
TTITLE1=We could not wait
TTITLE2=The Abbottsville fire truck began pumping
TTITLE3=Nine
TTITLE4=Jem and I viewed Christmas with mixed feelings
TTITLE5=Finch's Landing
TTITLE6=When stalking one's prey
TTITLE7=Later, when I was supposed to be
EXTD=YEAR: 2006
EXTT0=
EXTT1=
EXTT2=
EXTT3=
EXTT4=
EXTT5=
EXTT6=
EXTT7=
PLAYORDER=
